<svg xmlns="http://www.w3.org/2000/svg" width="15.612" height="21.837" viewBox="0 0 15.612 21.837"><defs><style>.a{fill:#ff6f3c;fill-rule:evenodd;}</style></defs><path d="M7.795,1.07A6.318,6.318,0,0,1,12.1,2.445h0a4.911,4.911,0,0,1,1.526,3.671,1.135,1.135,0,0,1,.5.431A1.743,1.743,0,0,1,14.4,7.5a1.717,1.717,0,0,1-.295.982,1,1,0,0,1-.816.461h-.015a10.522,10.522,0,0,1-2.138,4.147A5.017,5.017,0,0,1,8.58,14.749a7.817,7.817,0,0,1,7,7.032l.03.317H0l.03-.317a7.82,7.82,0,0,1,6.987-7.032,5.017,5.017,0,0,1-2.553-1.662A10.329,10.329,0,0,1,2.326,8.94a.986.986,0,0,1-.8-.461A1.717,1.717,0,0,1,1.231,7.5a1.768,1.768,0,0,1,.257-.937,1.141,1.141,0,0,1,.483-.431A4.916,4.916,0,0,1,3.5,2.452,6.318,6.318,0,0,1,7.8,1.078Zm4.872,16.1A7.223,7.223,0,0,0,.657,21.509H14.97a7.247,7.247,0,0,0-2.3-4.343ZM5.884,10.338a.289.289,0,1,1,.423-.393,2.185,2.185,0,0,0,1.5.838,2.088,2.088,0,0,0,1.5-.831.294.294,0,0,1,.438.393,2.588,2.588,0,0,1-1.926,1.02A2.707,2.707,0,0,1,5.9,10.345ZM5.408,6.153a.944.944,0,0,1,.657.272h0a.931.931,0,0,1,.272.657.944.944,0,0,1-.272.657h0a.93.93,0,0,1-1.314,0h0a.929.929,0,0,1,.657-1.586Zm.242.687a.349.349,0,0,0-.242-.1.336.336,0,0,0-.242.1.349.349,0,0,0-.1.242.336.336,0,0,0,.1.242.349.349,0,0,0,.242.1.336.336,0,0,0,.242-.1.349.349,0,0,0,.1-.242A.336.336,0,0,0,5.65,6.841ZM10.2,6.153a.944.944,0,0,1,.657.272h0a.931.931,0,0,1,.272.657.944.944,0,0,1-.272.657h0a.93.93,0,0,1-1.314,0h0A.929.929,0,0,1,10.2,6.153Zm.242.687a.349.349,0,0,0-.242-.1.336.336,0,0,0-.242.1.349.349,0,0,0-.1.242.336.336,0,0,0,.1.242.349.349,0,0,0,.242.1.336.336,0,0,0,.242-.1.349.349,0,0,0,.1-.242A.336.336,0,0,0,10.446,6.841Zm1.261-3.965A5.785,5.785,0,0,0,7.795,1.652,5.747,5.747,0,0,0,3.882,2.875,4.457,4.457,0,0,0,2.545,6.342V6.6l-.257.03a.481.481,0,0,0-.317.242A1.246,1.246,0,0,0,1.986,8.14a.436.436,0,0,0,.332.211.112.112,0,0,0,.053-.008h0a.14.14,0,0,0,.053-.015l.31-.113.076.317a10.016,10.016,0,0,0,2.077,4.162,4,4,0,0,0,2.9,1.548,4,4,0,0,0,2.9-1.556,10.046,10.046,0,0,0,2.077-4.169l.083-.332.317.128a.521.521,0,0,1,.06.023h0c.015,0,.038.008.06.008a.436.436,0,0,0,.332-.211,1.236,1.236,0,0,0,.008-1.276.48.48,0,0,0-.325-.234L13.037,6.6V6.327A4.451,4.451,0,0,0,11.7,2.868Z" transform="translate(0 -0.261)"/><path class="a" d="M6.919,4.539a7.557,7.557,0,0,0,3.731-.808A3.531,3.531,0,0,1,8.845,5.74a5.786,5.786,0,0,0,4.623-1.752C15.507-1.141-1.979-1.873,2.81,5.053A10,10,0,0,0,7.727,3.4a2.079,2.079,0,0,1-.808,1.133Z" transform="translate(-0.483 0.001)"/></svg>