<svg xmlns="http://www.w3.org/2000/svg" width="117.539" height="31.177" viewBox="0 0 117.539 31.177"><defs><style>.a,.c{fill:#155263;}.a{fill-rule:evenodd;}.b{fill:#fec93c;}.c{font-size:21px;font-family:Poppins-Bold, Poppins;font-weight:700;}</style></defs><g transform="translate(0)"><g transform="translate(0)"><g transform="translate(0 2.611)"><path class="a" d="M4.2,4.183A14.278,14.278,0,0,1,18.016.49,3.061,3.061,0,0,1,20.23,2.706a3.06,3.06,0,0,1-.811,3.026L16.807,8.344l-2.216,2.216L12.376,8.344l-.089-.089-.862,5.308-.7,4.292,4.292-.7,5.308-.862-.089-.089,0,0h0l-2.213-2.213,2.216-2.216,2.612-2.612a3.133,3.133,0,0,1,5.242,1.4A14.284,14.284,0,1,1,4.2,4.184Z" transform="translate(-0.018 0)"/><path class="b" d="M68.338,57.26a1.6,1.6,0,0,1,3.1-.808,12.375,12.375,0,1,1-8.833-8.834,1.6,1.6,0,1,1-.808,3.1,9.2,9.2,0,0,0-4.724.027A9.151,9.151,0,1,0,68.311,61.984a9.2,9.2,0,0,0,.027-4.724Z" transform="translate(-45.196 -45.296)"/></g><text class="c" transform="translate(33.539 22)"><tspan x="0" y="0">creditIn</tspan></text></g></g></svg>