<svg xmlns="http://www.w3.org/2000/svg" width="28.981" height="28.981" viewBox="0 0 28.981 28.981"><defs><style>.a{fill:#ff6f3c;}</style></defs><path class="a" d="M24.151,5.117v-2.7A2.418,2.418,0,0,0,21.736,0H2.415A2.418,2.418,0,0,0,0,2.415V13.042a2.41,2.41,0,0,0,2.166,2.39l1.816,4.713A2.416,2.416,0,0,0,7.1,21.531l11.338-4.368a6.983,6.983,0,0,0,.6,6.2l.278.444V28.5a.483.483,0,0,0,.483.483H28.5a.483.483,0,0,0,.483-.483V12.554A6.321,6.321,0,0,0,27.131,8.1Zm0,2.889,1.466,3.805a1.449,1.449,0,0,1-.832,1.873l-.838.324a2.416,2.416,0,0,0,.2-.966ZM.966,13.042V2.415A1.449,1.449,0,0,1,2.415.966H21.736a1.449,1.449,0,0,1,1.449,1.449v3.07h0l0,.011v7.545a1.469,1.469,0,0,1-.033.25L18.728,8.867a2.577,2.577,0,0,0-3.719,3.564l1.886,2.06H2.415A1.449,1.449,0,0,1,.966,13.042Zm6.188,2.415L3.719,16.779l-.508-1.322Zm-.4,5.172A1.449,1.449,0,0,1,4.883,19.8l-.815-2.119,5.766-2.222v0H17.78l.628.684Zm21.259,7.386H20.287V24.151h7.728Zm0-4.83H20.072l-.21-.335a6.023,6.023,0,0,1-.122-6.186.483.483,0,0,0-.063-.566L15.719,11.78a1.611,1.611,0,0,1,2.326-2.228l7.7,7.7.683-.683-1.787-1.787.5-.193a2.415,2.415,0,0,0,1.385-3.12L24.883,7.218l1.565,1.568a5.349,5.349,0,0,1,1.568,3.768Zm0,0"/><path class="a" d="M66.074,67.33a1.256,1.256,0,0,0,1.256-1.256V63.756A1.256,1.256,0,0,0,66.074,62.5H63.756A1.256,1.256,0,0,0,62.5,63.756v2.319a1.256,1.256,0,0,0,1.256,1.256Zm-2.608-1.256V65.4h.966v-.966h-.966v-.676a.29.29,0,0,1,.29-.29h2.319a.29.29,0,0,1,.29.29v.676H65.4V65.4h.966v.676a.29.29,0,0,1-.29.29H63.756A.29.29,0,0,1,63.466,66.074Zm0,0" transform="translate(-60.568 -60.568)"/><path class="a" d="M78.125,265.625h1.932v.966H78.125Zm0,0" transform="translate(-75.71 -257.414)"/><path class="a" d="M78.125,359.375h1.932v.966H78.125Zm0,0" transform="translate(-75.71 -348.266)"/><path class="a" d="M359.375,359.375h1.932v.966h-1.932Zm0,0" transform="translate(-348.265 -348.266)"/><path class="a" d="M171.875,265.625h1.932v.966h-1.932Zm0,0" transform="translate(-166.562 -257.414)"/><path class="a" d="M265.625,265.625h1.932v.966h-1.932Zm0,0" transform="translate(-257.414 -257.414)"/><path class="a" d="M359.375,265.625h1.932v.966h-1.932Zm0,0" transform="translate(-348.265 -257.414)"/><path class="a" d="M656.25,78.125h.966v1.449h-.966Zm0,0" transform="translate(-635.963 -75.71)"/><path class="a" d="M593.75,78.125h.966v1.449h-.966Zm0,0" transform="translate(-575.395 -75.71)"/><path class="a" d="M531.25,78.125h.966v1.449h-.966Zm0,0" transform="translate(-514.827 -75.71)"/><path class="a" d="M468.75,78.125h.966v1.449h-.966Zm0,0" transform="translate(-454.259 -75.71)"/><path class="a" d="M687.5,812.5h.966v.966H687.5Zm0,0" transform="translate(-666.247 -787.383)"/></svg>