<svg xmlns="http://www.w3.org/2000/svg" width="121.374" height="31.833" viewBox="0 0 121.374 31.833"><defs><style>.a,.c{fill:#fff;}.a{fill-rule:evenodd;}.b{fill:#fec93c;}.c{font-size:21px;font-family:Poppins-Bold, Poppins;font-weight:700;}</style></defs><g transform="translate(0 -2.91)"><g transform="translate(0 0)"><g transform="translate(0 2.91)"><path class="a" d="M4.679,4.662A15.91,15.91,0,0,1,20.074.546a3.411,3.411,0,0,1,2.468,2.469,3.41,3.41,0,0,1-.9,3.372L18.727,9.3l-2.469,2.469L13.789,9.3l-.1-.1-.961,5.915L11.952,19.9l4.783-.777,5.915-.961-.1-.1,0,0h0l-2.466-2.466,2.469-2.469,2.911-2.911A3.492,3.492,0,0,1,31.3,11.776,15.917,15.917,0,1,1,4.679,4.662Z" transform="translate(-0.018 0)"/><path class="b" d="M70.765,58.408a1.786,1.786,0,0,1,3.456-.9,13.79,13.79,0,1,1-9.844-9.844,1.786,1.786,0,0,1-.9,3.456,10.255,10.255,0,0,0-5.265.03A10.2,10.2,0,1,0,70.735,63.672a10.255,10.255,0,0,0,.03-5.265Z" transform="translate(-44.977 -45.076)"/></g><text class="c" transform="translate(37.374 26.326)"><tspan x="0" y="0">creditIn</tspan></text></g></g></svg>