<svg xmlns="http://www.w3.org/2000/svg" width="32.72" height="32.72" viewBox="0 0 32.72 32.72"><defs><style>.a{fill:none;}.b{fill:#fff;}</style></defs><path class="a" d="M0,0H32.72V32.72H0Z"/><path class="b" d="M15.633,2A13.633,13.633,0,1,0,29.267,15.633,13.638,13.638,0,0,0,15.633,2ZM14.27,26.445A10.891,10.891,0,0,1,4.727,15.633a11.067,11.067,0,0,1,.286-2.44l6.53,6.53v1.363a2.735,2.735,0,0,0,2.727,2.727Zm9.407-3.463a2.7,2.7,0,0,0-2.59-1.9H19.723V17a1.367,1.367,0,0,0-1.363-1.363H10.18V12.907h2.727a1.367,1.367,0,0,0,1.363-1.363V8.817H17A2.735,2.735,0,0,0,19.723,6.09V5.531a10.882,10.882,0,0,1,3.954,17.451Z" transform="translate(0.727 0.727)"/></svg>