<svg id="Layer_x0020_1" xmlns="http://www.w3.org/2000/svg" xmlns:xlink="http://www.w3.org/1999/xlink" width="193.698" height="47.443" viewBox="0 0 193.698 47.443">
  <defs>
    <linearGradient id="linear-gradient" x1="0.501" y1="-0.016" x2="0.501" y2="1.013" gradientUnits="objectBoundingBox">
      <stop offset="0" stop-color="#3781b2"/>
      <stop offset="0.459" stop-color="#61a8b8"/>
      <stop offset="1" stop-color="#8cd0bf"/>
    </linearGradient>
    <linearGradient id="linear-gradient-2" x1="-0.026" y1="0.48" x2="0.999" y2="0.48" gradientUnits="objectBoundingBox">
      <stop offset="0" stop-color="#58c2af"/>
      <stop offset="1" stop-color="#dde89c"/>
    </linearGradient>
    <linearGradient id="linear-gradient-3" x1="0.49" y1="0.001" x2="0.49" y2="1.031" gradientUnits="objectBoundingBox">
      <stop offset="0" stop-color="#ec4b49"/>
      <stop offset="1" stop-color="#8e55a0"/>
    </linearGradient>
    <linearGradient id="linear-gradient-4" x1="0.53" y1="0.001" x2="0.53" y2="0.999" gradientUnits="objectBoundingBox">
      <stop offset="0" stop-color="#f58b7d"/>
      <stop offset="1" stop-color="#fdc87a"/>
    </linearGradient>
  </defs>
  <path id="Path_6444" data-name="Path 6444" d="M.006,47.742v-.058H0c0-.054-.009-.11-.009-.169V2.583c0-.053,0-.1,0-.152H0v-.1A1.608,1.608,0,0,1,.079,2H.092V1.969c.012-.033.026-.065.04-.1h0v0a.843.843,0,0,1,.043-.081h0A1.079,1.079,0,0,1,.3,1.614H.306V1.6a.98.98,0,0,1,.127-.12h0A.945.945,0,0,1,.561,1.4h0a1.078,1.078,0,0,1,.192-.085H.778V1.306L.8,1.3,24.521,24.823l-2.748,2.724h0L16.707,32.57h0L11.64,37.594h0L.6,48.542h0a.918.918,0,0,1-.592-.8Z" transform="translate(0.01 -1.142)" fill="url(#linear-gradient)"/>
  <path id="Path_6445" data-name="Path 6445" d="M28.133,22.338h0l-5.066-5.023h0l-.043-.043h0l-5.066-5.023h0L12.891,7.224l-.043-.043h0L7.782,2.158,6.6.986A1.306,1.306,0,0,1,6.741.955h.01a1.525,1.525,0,0,1,.6.042V1h.009a2.044,2.044,0,0,1,.249.083v0h0c.027.011.054.022.081.036v.009h.017c.048.022.1.047.145.073L26.208,11.8l.18.1.325.187.153.088.142.082L34.873,16.8l2.037,1.176-6.589,6.534-2.189-2.171Z" transform="translate(-5.79 -0.826)" fill="url(#linear-gradient-2)"/>
  <path id="Path_6446" data-name="Path 6446" d="M4.977,217.062v0H4.97l.866-.859h0l5.066-5.023h0l17.99-17.838,6.589,6.533-.318.184-8.33,4.809h0l-1.253.724-.02.011-.159.092-.371.214-.116.067-1,.579-.157.091-1.085.626h0L12.407,213.2h0l-3.049,1.76L7.023,216.3l-.713.412h0l-.294.169,0,0h0l-.077.042H5.923v0l-.082.039h0a1.656,1.656,0,0,1-.235.085H5.58v.006a1.388,1.388,0,0,1-.213.037H5.178a.864.864,0,0,1-.2-.04Z" transform="translate(-4.36 -169.658)" fill="url(#linear-gradient-3)"/>
  <path id="Path_6447" data-name="Path 6447" d="M203.19,149.438h0l-2.92-2.9,2.319-2.3h0l4.27-4.233s8.643,5.026,9.585,5.534l.015.009.088.05c.028.017.056.036.083.054v0h.006a1.635,1.635,0,0,1,.165.127h0l.042.038v0h.006l.037.037v.006h.006c.012.013.026.027.037.04v0h0a1.09,1.09,0,0,1,.169.254v0h0a.911.911,0,0,1,.04.1v.024h.007a.807.807,0,0,1-.044.559h0v.012c-.011.025-.025.049-.038.074h0v.009a1.508,1.508,0,0,1-.38.42h-.006v0a2.5,2.5,0,0,1-.288.194l-.7.405-.589.341-.223.129h0l-.085.049-5.575,3.219-.033.02-1.207.7-.281.162-.306.176-.119.069-.227.131-.165.1-.011.006-3.667-3.637Z" transform="translate(-175.737 -122.861)" fill="url(#linear-gradient-4)"/>
  <path id="Path_6448" data-name="Path 6448" d="M1213.342,153.061a3.8,3.8,0,0,0-3.136,1.2,6.178,6.178,0,0,0-.995,3.822v.477a7.079,7.079,0,0,0,.995,4.266,3.781,3.781,0,0,0,3.188,1.284,3.319,3.319,0,0,0,2.874-1.483,7.046,7.046,0,0,0,1.039-4.093,6.778,6.778,0,0,0-1.039-4.059,3.421,3.421,0,0,0-2.925-1.414Zm.31,12.844a6.107,6.107,0,0,1-2.523-.51,4.753,4.753,0,0,1-1.917-1.568h-.154a19.059,19.059,0,0,1,.154,2.348V172h-2.141V151.5h1.742l.3,1.937h.1a4.986,4.986,0,0,1,1.924-1.678,5.845,5.845,0,0,1,2.516-.517,5.227,5.227,0,0,1,4.344,1.924,10.247,10.247,0,0,1-.025,10.813A5.24,5.24,0,0,1,1213.652,165.9Z" transform="translate(-1059.21 -132.715)" fill="#f8f8f8"/>
  <path id="Path_6449" data-name="Path 6449" d="M1331.76,124.975h2.142V104.89h-2.142Z" transform="translate(-1168.626 -92.043)" fill="#f8f8f8"/>
  <path id="Path_6450" data-name="Path 6450" d="M1375.087,164.357a4.35,4.35,0,0,0,3.143-1.1,4.063,4.063,0,0,0,1.143-3.073v-1.278l-2.144.089a7.8,7.8,0,0,0-3.686.795,2.4,2.4,0,0,0-1.129,2.188,2.2,2.2,0,0,0,.7,1.768,2.914,2.914,0,0,0,1.968.608Zm4.841,1.51-.426-2.014h-.1a5.911,5.911,0,0,1-2.11,1.8,6.417,6.417,0,0,1-2.626.472,4.725,4.725,0,0,1-3.3-1.084,3.953,3.953,0,0,1-1.194-3.084q0-4.285,6.855-4.492l2.4-.077v-.877a3.583,3.583,0,0,0-.717-2.458,2.941,2.941,0,0,0-2.291-.794,9.335,9.335,0,0,0-4,1.084l-.659-1.639a10.1,10.1,0,0,1,2.292-.891,9.9,9.9,0,0,1,2.5-.323,5.383,5.383,0,0,1,3.75,1.123,4.687,4.687,0,0,1,1.219,3.6v9.655h-1.587Z" transform="translate(-1202.331 -132.935)" fill="#f8f8f8"/>
  <path id="Path_6451" data-name="Path 6451" d="M1472.931,153.36h2.3l3.1,8.069a30.557,30.557,0,0,1,1.265,3.99h.1q.169-.66.7-2.254t3.5-9.8h2.3l-6.081,16.11a8.032,8.032,0,0,1-2.112,3.389,4.488,4.488,0,0,1-2.962,1,8.655,8.655,0,0,1-1.937-.219v-1.716a7.49,7.49,0,0,0,1.589.154,3.272,3.272,0,0,0,3.149-2.479l.786-2.014-5.7-14.226Z" transform="translate(-1292.503 -134.575)" fill="#f8f8f8"/>
  <path id="Path_6452" data-name="Path 6452" d="M856.426,164a2.994,2.994,0,0,0,.739-2.161c0-2.13-1.271-5.445-3.728-5.445a2.763,2.763,0,0,0-2.071.977,3.416,3.416,0,0,0-.652,2.189c0,1.982,1.154,5.267,3.7,5.267a3.032,3.032,0,0,0,2.013-.829Zm-.859,5.624a4.632,4.632,0,0,0-.68-.031,11.834,11.834,0,0,0-3.108.475,3.324,3.324,0,0,0-2.545,3.048c0,2.1,2.043,3.611,5.21,3.611,2.839,0,4.35-1.365,4.35-3.2C858.794,172.018,857.817,171.222,855.567,169.623Zm2.1-13.14a4.991,4.991,0,0,1,2.1,4c0,2.189-1.242,3.227-2.487,4.2a2.083,2.083,0,0,0-.828,1.452,1.621,1.621,0,0,0,.77,1.271l1.066.827c1.3,1.1,2.484,2.1,2.484,4.145,0,2.781-2.694,5.592-7.782,5.592-4.291,0-6.362-2.041-6.362-4.232a4.256,4.256,0,0,1,2.278-3.61,12.756,12.756,0,0,1,5.652-1.362,3.1,3.1,0,0,1-.888-2.01,2.66,2.66,0,0,1,.3-1.155c-.327.031-.652.06-.948.06a4.679,4.679,0,0,1-4.912-4.645A5.325,5.325,0,0,1,850,157.048a8.073,8.073,0,0,1,5.3-1.628h6.1l-1.895,1.066h-1.834Z" transform="translate(-742.921 -136.383)" fill="#f8f8f8"/>
  <path id="Path_6453" data-name="Path 6453" d="M736.711,163.719a5.344,5.344,0,0,0,.888-3.28c0-2.6-1.241-7.563-4.9-7.563a4.112,4.112,0,0,0-2.658,1.007,4.467,4.467,0,0,0-1.36,3.6c0,2.923,1.448,7.737,5.023,7.737a3.776,3.776,0,0,0,3.012-1.5Zm-3.692,2.392a6.973,6.973,0,0,1-7.209-6.974,7.32,7.32,0,0,1,7.653-7.178,6.907,6.907,0,0,1,7.059,6.972A7.219,7.219,0,0,1,733.019,166.112Z" transform="translate(-636.901 -133.347)" fill="#f8f8f8"/>
  <path id="Path_6454" data-name="Path 6454" d="M605.982,163.719a5.352,5.352,0,0,0,.887-3.28c0-2.6-1.241-7.563-4.906-7.563a4.11,4.11,0,0,0-2.658,1.007,4.466,4.466,0,0,0-1.358,3.6c0,2.923,1.447,7.737,5.023,7.737a3.778,3.778,0,0,0,3.013-1.5Zm-3.693,2.392a6.972,6.972,0,0,1-7.209-6.974,7.321,7.321,0,0,1,7.652-7.178,6.907,6.907,0,0,1,7.061,6.972A7.219,7.219,0,0,1,602.289,166.112Z" transform="translate(-522.185 -133.347)" fill="#f8f8f8"/>
  <path id="Path_6455" data-name="Path 6455" d="M430.045,117.746l-4.248.98a31.434,31.434,0,0,1-4.9.5c-8.2,0-11.317-6.03-11.317-10.753,0-5.762,4.425-11.107,12-11.107a17.083,17.083,0,0,1,4.543.623,11.585,11.585,0,0,1,3.921,1.841l-2.466,2.347-1.039.236.742-1.188a8.488,8.488,0,0,0-6.356-2.79c-4.694,0-8.229,3.566-8.229,8.763,0,5.582,4.04,10.841,10.515,10.841a8.835,8.835,0,0,0,3.773-.744v-4.781l-4.485.238,2.375-1.278h6.3l-.772.742a.7.7,0,0,0-.3.475c-.031.268-.059,1.129-.059,1.427v3.625Z" transform="translate(-359.408 -85.444)" fill="#f8f8f8"/>
  <path id="Path_6456" data-name="Path 6456" d="M968.2,112.152c-.981-.089-1.186-.267-1.186-1.426V93.914c.006-.064.01-.13.016-.191.12-1.039.417-1.218,1.339-1.753h-4.249l-2.228,1.069h2.271v18.34c0,.593-.118.684-.8,1.573h5.257l1.1-.652c-.5-.061-1.009-.091-1.515-.149Z" transform="translate(-844.063 -80.705)" fill="#f8f8f8"/>
  <path id="Path_6457" data-name="Path 6457" d="M1032.164,156.354c.56-.206.855-.383.855-.8a2.927,2.927,0,0,0-2.922-2.537c-1.181,0-3.392.915-3.392,4.1,0,.5.059,1.033.089,1.565Zm2.772,8.791c-.323.178-.648.385-.971.532a6.876,6.876,0,0,1-2.864.561,6.3,6.3,0,0,1-3.923-1.151,7.636,7.636,0,0,1-3.007-6.224,6.685,6.685,0,0,1,6.755-6.813,5.73,5.73,0,0,1,3.04.827,4.885,4.885,0,0,1,2.063,2.918l-6.931,2.8-2.272.176c.736,3.746,3.273,5.928,6.077,5.928a7.621,7.621,0,0,0,3.6-1.031l-1.564,1.475Z" transform="translate(-898.714 -133.426)" fill="#f8f8f8"/>
  <path id="Path_6458" data-name="Path 6458" d="M1129,152.242v1.946h-.236v-1.946h-.643v-.2h1.524v.2Z" transform="translate(-989.93 -133.417)" fill="#f8f8f8"/>
  <path id="Path_6459" data-name="Path 6459" d="M1145.342,154.189v-1.965h-.01l-.6,1.965h-.185l-.605-1.965h-.007v1.965h-.214V152.04h.368l.547,1.737h.007l.539-1.737h.374v2.149Z" transform="translate(-1003.62 -133.417)" fill="#f8f8f8"/>
  <path id="Path_6460" data-name="Path 6460" d="M413.718,4.52a26.037,26.037,0,0,1-.789-2.574h-.073q0,.18-.816,2.574h1.679Zm2.131,2.605h-1.476a9.842,9.842,0,0,0-.42-1.725h-2.131a8.918,8.918,0,0,0-.434,1.725H410q0-.18,1.077-2.952a23.041,23.041,0,0,0,1.077-3.054H413.9a25.367,25.367,0,0,0,.975,3.01,26.276,26.276,0,0,1,.975,3Z" transform="translate(-359.776 -0.984)" fill="#f9f8f8"/>
  <path id="Path_6461" data-name="Path 6461" d="M470.858,7.135h-1.139a11.263,11.263,0,0,0-1.268-2,11,11,0,0,1-1.513-2.605h-.073a16.183,16.183,0,0,1,.115,1.826q0,1.139.065,2.776H465.91q.07-1.43.069-3.141,0-1.683-.069-2.864h1.37a8.69,8.69,0,0,0,1.139,1.951,11.494,11.494,0,0,1,1.393,2.458h.069a17.49,17.49,0,0,1-.11-1.845q0-1.249-.065-2.565h1.154q-.064,1.143-.065,2.864t.065,3.141Z" transform="translate(-408.837 -0.993)" fill="#f9f8f8"/>
  <path id="Path_6462" data-name="Path 6462" d="M523.273,3.939a2.217,2.217,0,0,0-.517-1.492,1.96,1.96,0,0,0-1.578-.606,4.763,4.763,0,0,0-.545.042q.046.922.047,1.928,0,1.1.047,2.187a3.013,3.013,0,0,0,.6.06,1.744,1.744,0,0,0,1.469-.616,2.375,2.375,0,0,0,.478-1.5Zm1.259-.2a3.4,3.4,0,0,1-.839,2.288,2.934,2.934,0,0,1-2.352.978q-.683,0-1.881-.055.061-1.393.06-3.141,0-1.679-.06-2.864h.807c.132,0,.328,0,.59-.013s.432-.013.512-.013a3.108,3.108,0,0,1,2.414.831,2.871,2.871,0,0,1,.75,1.993Z" transform="translate(-455.828 -0.809)" fill="#f9f8f8"/>
  <path id="Path_6463" data-name="Path 6463" d="M574.632,2.7q0-.917-1.181-.917a3.959,3.959,0,0,0-.766.065q.052.715.051,1.863c.169.006.311.01.429.01q1.466,0,1.466-1.019Zm1.73,4.243H575a9.06,9.06,0,0,0-.821-2.015,1.075,1.075,0,0,0-.922-.383c-.179,0-.349,0-.512,0q0,1.185.042,2.394H571.5q.059-1.393.06-3.141,0-1.679-.06-2.864h.8c.092,0,.285,0,.579-.013s.565-.013.815-.013q2.117,0,2.117,1.448a1.623,1.623,0,0,1-1.209,1.6v.069a1.439,1.439,0,0,1,.817.726A16.013,16.013,0,0,1,576.362,6.942Z" transform="translate(-501.493 -0.8)" fill="#f9f8f8"/>
  <path id="Path_6464" data-name="Path 6464" d="M621.838,3.173a2.387,2.387,0,0,0-.494-1.564,1.52,1.52,0,0,0-1.218-.6,1.406,1.406,0,0,0-1.144.6,2.41,2.41,0,0,0-.47,1.526,2.372,2.372,0,0,0,.5,1.561,1.519,1.519,0,0,0,1.215.6,1.407,1.407,0,0,0,1.144-.606,2.413,2.413,0,0,0,.47-1.524Zm1.273-.134a3.312,3.312,0,0,1-.867,2.348,2.814,2.814,0,0,1-2.145.932,2.707,2.707,0,0,1-2.038-.856,3.014,3.014,0,0,1-.821-2.174,3.309,3.309,0,0,1,.867-2.347A2.813,2.813,0,0,1,620.252.01a2.712,2.712,0,0,1,2.038.854,3.01,3.01,0,0,1,.821,2.177Z" transform="translate(-541.63 -0.01)" fill="#f9f8f8"/>
  <path id="Path_6465" data-name="Path 6465" d="M677.106,7.135H675.8q.061-1.43.06-3.141,0-1.683-.06-2.864h1.306q-.061,1.163-.06,2.864Q677.046,5.732,677.106,7.135Z" transform="translate(-593.017 -0.993)" fill="#f9f8f8"/>
  <path id="Path_6466" data-name="Path 6466" d="M703.443,3.939a2.222,2.222,0,0,0-.517-1.492,1.959,1.959,0,0,0-1.578-.606,4.726,4.726,0,0,0-.544.042q.046.922.047,1.928,0,1.1.045,2.187a3.014,3.014,0,0,0,.6.06,1.742,1.742,0,0,0,1.469-.616,2.375,2.375,0,0,0,.478-1.5Zm1.259-.2a3.4,3.4,0,0,1-.839,2.288,2.933,2.933,0,0,1-2.352.978q-.684,0-1.882-.055.061-1.393.06-3.141,0-1.679-.06-2.864h.807c.132,0,.328,0,.59-.013s.432-.013.512-.013a3.108,3.108,0,0,1,2.414.831,2.87,2.87,0,0,1,.75,1.993Z" transform="translate(-613.928 -0.809)" fill="#f9f8f8"/>
  <path id="Path_6467" data-name="Path 6467" d="M769.408,4.52a26.049,26.049,0,0,1-.789-2.574h-.073q0,.18-.816,2.574h1.679Zm2.131,2.605h-1.476a9.722,9.722,0,0,0-.42-1.725h-2.131a8.921,8.921,0,0,0-.434,1.725H765.69q0-.18,1.077-2.952a23.045,23.045,0,0,0,1.077-3.054h1.743a25.522,25.522,0,0,0,.976,3.01,26.258,26.258,0,0,1,.975,3Z" transform="translate(-671.896 -0.984)" fill="#f9f8f8"/>
  <path id="Path_6468" data-name="Path 6468" d="M824.772,2.763q0-.987-1.311-.987a3.782,3.782,0,0,0-.692.069q.052.873.05,1.975c.077.006.167.009.267.009q1.683,0,1.683-1.066Zm1.189-.254a1.8,1.8,0,0,1-.818,1.628,3.642,3.642,0,0,1-2.009.526,3.056,3.056,0,0,1-.309-.01q0,.867.05,2.288h-1.3q.061-1.332.06-3.141,0-1.661-.06-2.864h.8c.114,0,.332,0,.655-.013s.6-.013.839-.013a2.64,2.64,0,0,1,1.481.4,1.342,1.342,0,0,1,.6,1.2Z" transform="translate(-720.94 -0.8)" fill="#f9f8f8"/>
  <path id="Path_6469" data-name="Path 6469" d="M869.932,2.763q0-.987-1.31-.987a3.782,3.782,0,0,0-.692.069q.052.873.05,1.975c.077.006.167.009.267.009q1.683,0,1.683-1.066Zm1.189-.254a1.8,1.8,0,0,1-.818,1.628,3.644,3.644,0,0,1-2.009.526,3.055,3.055,0,0,1-.309-.01q0,.867.05,2.288h-1.3q.061-1.332.06-3.141,0-1.661-.06-2.864h.8c.114,0,.332,0,.655-.013s.6-.013.839-.013a2.641,2.641,0,0,1,1.481.4,1.342,1.342,0,0,1,.6,1.2Z" transform="translate(-760.568 -0.8)" fill="#f9f8f8"/>
  <path id="Path_6470" data-name="Path 6470" d="M933.018,3.173a2.381,2.381,0,0,0-.494-1.564,1.52,1.52,0,0,0-1.218-.6,1.407,1.407,0,0,0-1.144.6,2.41,2.41,0,0,0-.47,1.526,2.372,2.372,0,0,0,.5,1.561,1.518,1.518,0,0,0,1.215.6,1.405,1.405,0,0,0,1.144-.606,2.412,2.412,0,0,0,.47-1.524Zm1.273-.134a3.312,3.312,0,0,1-.867,2.348,2.814,2.814,0,0,1-2.145.932,2.707,2.707,0,0,1-2.038-.856,3.014,3.014,0,0,1-.821-2.174,3.309,3.309,0,0,1,.867-2.347A2.814,2.814,0,0,1,931.432.01a2.713,2.713,0,0,1,2.038.854,3.01,3.01,0,0,1,.821,2.177Z" transform="translate(-814.693 -0.01)" fill="#f9f8f8"/>
  <path id="Path_6471" data-name="Path 6471" d="M991.948,7.135h-1.139a11.258,11.258,0,0,0-1.268-2,11,11,0,0,1-1.513-2.605h-.073a16.474,16.474,0,0,1,.115,1.826q0,1.139.065,2.776H987q.068-1.43.069-3.141,0-1.683-.069-2.864h1.37a8.691,8.691,0,0,0,1.139,1.951A11.5,11.5,0,0,1,990.9,5.54h.069a17.5,17.5,0,0,1-.11-1.845q0-1.249-.065-2.565h1.153q-.064,1.143-.065,2.864T991.948,7.135Z" transform="translate(-866.097 -0.993)" fill="#f9f8f8"/>
</svg>
