<svg xmlns="http://www.w3.org/2000/svg" width="22.365" height="23.17" viewBox="0 0 22.365 23.17"><defs><style>.a{fill:#ff6f3c;fill-rule:evenodd;}</style></defs><path d="M11.445.3V16.145l-.063.184-5.52,6.844H0v-3.5l6.965-5.748c-.108-.355-.2-.64-.292-.925-.754-2.351-1.508-4.721-.57-6.572L8.8,1.4A2.175,2.175,0,0,1,9.779.3,2.876,2.876,0,0,1,11.16.01h.3v.3Zm-.6,15.736V.606a2.014,2.014,0,0,0-.8.215,1.619,1.619,0,0,0-.716.818L6.623,6.683c-.83,1.635-.108,3.891.608,6.128.133.412.26.824.355,1.122l.057.19L.589,19.941v2.636H5.577Z" transform="translate(0 -0.004)"/><path class="a" d="M5.983,24.991l3.555,3.625,1.248-1.546L7.511,23.73,5.983,24.991Zm3.131,4.157L5.457,25.422,3.93,26.683l3.936,4.012Z" transform="translate(-1.439 -8.691)"/><path d="M16.409,10.749h-.051a1.46,1.46,0,0,0-1.046.437,1.486,1.486,0,0,0-.437,1.046v1.781h-.6V12.232a2.077,2.077,0,0,1,2.072-2.072H16.4v.6Z" transform="translate(-5.23 -3.721)"/><path d="M17.806.6V16.034l5.273,6.54h4.988V19.938L21.012,14.12l.057-.19c.089-.3.222-.71.355-1.122.716-2.237,1.432-4.487.608-6.128L19.327,1.635a1.568,1.568,0,0,0-.716-.818,2.124,2.124,0,0,0-.8-.215Zm-.6,15.533V0h.3a2.969,2.969,0,0,1,1.382.292,2.2,2.2,0,0,1,.982,1.1l2.693,5.019c.938,1.851.177,4.221-.57,6.572-.089.285-.184.577-.292.925l6.965,5.748v3.5H22.806l-5.52-6.844-.063-.184Z" transform="translate(-6.303 0)"/><path class="a" d="M25.334,24.991l-3.555,3.625L20.53,27.07l3.276-3.34ZM22.2,29.148l3.657-3.726,1.527,1.261-3.936,4.012Z" transform="translate(-7.519 -8.691)"/><path d="M17.636,10.156h.051a2.077,2.077,0,0,1,2.072,2.072v1.781h-.6V12.229a1.46,1.46,0,0,0-.437-1.046,1.486,1.486,0,0,0-1.046-.437H17.63v-.6Z" transform="translate(-6.457 -3.718)"/></svg>