<svg xmlns="http://www.w3.org/2000/svg" width="27.83" height="30.622" viewBox="0 0 27.83 30.622"><defs><style>.a{fill:#155263;}.b{fill:none;}</style></defs><path class="a" d="M15.416,2C9.658,2,5,6.31,5,11.64c0,7.23,10.416,17.9,10.416,17.9s10.417-10.673,10.417-17.9C25.833,6.31,21.175,2,15.416,2Zm0,13.082A3.591,3.591,0,0,1,11.7,11.64,3.591,3.591,0,0,1,15.416,8.2a3.591,3.591,0,0,1,3.72,3.443A3.591,3.591,0,0,1,15.416,15.082Z" transform="translate(-1.501 -0.46)"/><path class="b" d="M0,0H27.83V30.622H0Z"/></svg>