<svg xmlns="http://www.w3.org/2000/svg" width="24.949" height="32.542" viewBox="0 0 24.949 32.542"><defs><style>.a{fill:#ff6f3c;}</style></defs><path class="a" d="M17.007,9.078a1.618,1.618,0,0,0,.209-.409,1.582,1.582,0,0,1,.624.249,2.386,2.386,0,0,0,1.275.408,2.473,2.473,0,0,0,.428-.039,2.278,2.278,0,0,0,1.476-.929,1.241,1.241,0,0,1,1.806-.318,2.278,2.278,0,0,0,1.7.368l-.189-1.068a1.241,1.241,0,0,1-.973-.239,2.308,2.308,0,0,0-3.18.561,1.242,1.242,0,0,1-.833.558,1.075,1.075,0,0,1-.474-.011,2.157,2.157,0,0,0,.868-.461A2.278,2.278,0,0,0,20.563,6.2a1.239,1.239,0,0,1,.443-.9,1.222,1.222,0,0,1,.962-.28,2.231,2.231,0,0,0,1.66-.534l-.7-.831a1.3,1.3,0,0,1-.962.279,2.309,2.309,0,0,0-2.474,2.076,1.241,1.241,0,0,1-1.4,1.178,2.41,2.41,0,0,0-1,.133,1.627,1.627,0,0,0-.63-.615l2.425-4.844a.542.542,0,0,0-.488-.785A1.4,1.4,0,0,1,17.383.661a2.5,2.5,0,0,0-3.389,0,1.433,1.433,0,0,1-1.017.423A1.432,1.432,0,0,1,11.96.661a2.5,2.5,0,0,0-3.391,0,1.4,1.4,0,0,1-1.018.423.542.542,0,0,0-.485.785L9.488,6.713a1.609,1.609,0,0,0-.546,2.365A11.4,11.4,0,0,0,.5,20.067v9.763a2.715,2.715,0,0,0,2.712,2.712H22.737a2.715,2.715,0,0,0,2.712-2.712V20.067A11.4,11.4,0,0,0,17.007,9.078ZM9.246,1.507a1.435,1.435,0,0,1,2.036,0,2.5,2.5,0,0,0,3.39,0,1.431,1.431,0,0,1,2.033,0,2.882,2.882,0,0,0,.88.532L15.351,6.507H10.6L8.364,2.04a2.9,2.9,0,0,0,.882-.533Zm1.016,7.169a.542.542,0,1,1,0-1.085h5.424a.542.542,0,1,1,0,1.085Zm14.1,21.153a1.627,1.627,0,0,1-1.627,1.627H3.212a1.627,1.627,0,0,1-1.627-1.627V20.067A10.316,10.316,0,0,1,11.89,9.761h2.169A10.317,10.317,0,0,1,24.364,20.067Zm0,0" transform="translate(-0.5 0.001)"/></svg>