<svg xmlns="http://www.w3.org/2000/svg" width="25.819" height="16.61" viewBox="0 0 25.819 16.61"><defs><style>.a{fill-rule:evenodd;}.b{fill:#ff6f3c;}</style></defs><g transform="translate(0 0)"><path class="a" d="M.881,12.225H19.716a.882.882,0,0,0,.621-.26h0a.882.882,0,0,0,.26-.621V.881A.887.887,0,0,0,19.716,0H.881A.887.887,0,0,0,0,.881V11.344a.9.9,0,0,0,.241.608l.013.013a.882.882,0,0,0,.621.26Zm4.347,2.009h16.82a.882.882,0,0,0,.621-.26h0a.882.882,0,0,0,.26-.621V2.89a.887.887,0,0,0-.881-.881h-1.1V11.35a1.231,1.231,0,0,1-1.229,1.229H2.332v.78a.9.9,0,0,0,.241.608l.013.013a.882.882,0,0,0,.621.26H5.222Zm18.4-9.848v8.967a1.593,1.593,0,0,1-.463,1.115,1.571,1.571,0,0,1-1.115.463H5.228v.8a.9.9,0,0,0,.241.608l.013.013a.882.882,0,0,0,.621.26H24.938a.882.882,0,0,0,.621-.26h0a.882.882,0,0,0,.26-.621V5.266a.887.887,0,0,0-.881-.881H23.62Zm-3.65,7.193a.327.327,0,0,0,.082-.228V.887a.361.361,0,0,0-.1-.247.35.35,0,0,0-.247-.1H.875a.361.361,0,0,0-.247.1.35.35,0,0,0-.1.247V11.35a.332.332,0,0,0,.089.228l.013.013a.35.35,0,0,0,.247.1H19.709a.361.361,0,0,0,.247-.1l.019-.019Z" transform="translate(0 0)"/><path class="b" d="M12.88,5.782h2.586v.849H12.88v.52h2.554c-.1.824-.551.919-2.2.919V9.179a1.46,1.46,0,0,0,1.591,1.641A1.422,1.422,0,0,0,16.4,9.23h-.659c0,.627-.26,1.02-.913,1.02-.684,0-.925-.437-.925-1.058V8.571c1.47,0,2.06-.355,2.2-1.426h1.052v-.52H16.144V5.776h1.014V5.25H12.88v.526Z" transform="translate(-4.717 -1.923)"/></g></svg>