<svg xmlns="http://www.w3.org/2000/svg" width="34.442" height="32.542" viewBox="0 0 34.442 32.542"><defs><style>.a{fill:#ff6f3c;}</style></defs><path class="a" d="M370.236,799.264a.974.974,0,0,1-1.006.556q-16.207-.013-32.414-.007c-.782,0-1.015-.237-1.016-1.029v-.674a1.2,1.2,0,0,1,1.1-1.29c.044-.008.084-.023.168-.046,0-.253-.007-.505,0-.758a1.186,1.186,0,0,1,1.189-1.2c.467-.015.936,0,1.45,0v-.9c0-.7.22-.991.927-1.2v-.718c0-.719.126-.962.5-.969s.514.244.514.985v.7h1.593V782.483h-1.589v6.407a1.572,1.572,0,0,1-.015.337.479.479,0,0,1-.494.421.471.471,0,0,1-.487-.421,1.917,1.917,0,0,1-.013-.369v-6.347c-.789-.313-.927-.516-.927-1.355v-.766h-1.276a.979.979,0,0,1-1.084-1.082v-.881c-.3-.018-.565-.016-.827-.055a.72.72,0,0,1-.67-.716c-.022-.245,0-.494-.018-.739a.959.959,0,0,1,.6-.985c2.186-1.135,4.363-2.284,6.544-3.427,3.182-1.669,6.367-3.331,9.542-5.013a1.38,1.38,0,0,1,1.482,0c.654.388,1.335.732,2.006,1.1a.56.56,0,0,1,.374.542c-.023.391-.4.578-.8.371-.684-.357-1.365-.722-2.037-1.1a.53.53,0,0,0-.58,0q-7.889,4.147-15.793,8.276a.5.5,0,0,0-.286.69h32.254a.521.521,0,0,0-.3-.705q-5.432-2.911-10.846-5.854a2.273,2.273,0,0,1-.314-.192.461.461,0,0,1-.142-.627.478.478,0,0,1,.6-.232,1.571,1.571,0,0,1,.3.144l11.11,6a1.021,1.021,0,0,1,.64,1.065c-.014.168,0,.337,0,.506a.828.828,0,0,1-.935.927c-.177,0-.355,0-.576,0,0,.324,0,.622,0,.921a.974.974,0,0,1-1.068,1.063c-.413.005-.825,0-1.291,0v.818c0,.785-.179,1.035-.918,1.285v10.211c.767.293.917.511.918,1.319v.794c.373,0,.728.023,1.079,0a1.313,1.313,0,0,1,1.563,1.55c-.013.133,0,.268,0,.441a1.363,1.363,0,0,1,1.273.922Zm-22.567-6.555V782.486c-.733-.243-.908-.488-.908-1.263V780.4h-1.534c-.02.443-.008.869-.067,1.286-.068.481-.446.686-.873.786v10.237a1.066,1.066,0,0,1,.917,1.253v.823h1.556v-.818c0-.772.175-1.013.908-1.259Zm14.072.01V782.475a1.045,1.045,0,0,1-.91-1.2v-.868h-1.556v.758c0,.83-.142,1.037-.913,1.322v10.2c.787.3.913.493.913,1.357v.758h1.56v-.891a1.045,1.045,0,0,1,.906-1.2Zm-10.4-10.244v10.246a1.029,1.029,0,0,1,.89,1.179v.894H353.8v-.815c0-.776.169-1.011.9-1.263V782.482c-.715-.237-.894-.486-.9-1.233v-.837h-1.568v.893A1.024,1.024,0,0,1,351.344,782.475Zm17.881,16.32a3.954,3.954,0,0,0-.013-.7.468.468,0,0,0-.265-.263.929.929,0,0,0-.366-.013H337.659c-.922,0-.865-.143-.842.906,0,.018.022.036.042.067Zm-1.273-2v-.3c.005-.667.005-.667-.647-.667H338.93c-.911,0-.866-.189-.836.9,0,.018.023.037.043.066Zm-29.567-17.45H367.65v-.921H338.381Zm11.9,13.384v-10.25h-1.567v10.25Zm5.464-10.259v10.251h1.563V782.469Zm7.045,0v10.254h1.563V782.466Zm-22.054-2.062v1.015h3.421v-1.015Zm21.118-.009v1.023h3.417v-1.025Zm-17.7,14.4v-1.024h-3.411V794.8Zm21.132-1.028h-3.43v1.011h3.43Zm-17.516-12.353H351.2v-1.011h-3.422Zm10.472-1.011h-3.416v1.011h3.418ZM351.2,794.8v-1.022h-3.4V794.8Zm3.634-.011h3.411v-1.021h-3.411Z" transform="translate(-335.8 -767.277)"/></svg>