<?xml version="1.0" encoding="UTF-8"?>
<!DOCTYPE svg PUBLIC "-//W3C//DTD SVG 1.1//EN" "http://www.w3.org/Graphics/SVG/1.1/DTD/svg11.dtd">
<!-- Creator: CorelDRAW 2020 (64-Bit) -->
<svg xmlns="http://www.w3.org/2000/svg" xml:space="preserve" width="1.66666in" height="1.66666in" version="1.1" style="shape-rendering:geometricPrecision; text-rendering:geometricPrecision; image-rendering:optimizeQuality; fill-rule:evenodd; clip-rule:evenodd"
viewBox="0 0 62.08 62.08"
 xmlns:xlink="http://www.w3.org/1999/xlink"
 xmlns:xodm="http://www.corel.com/coreldraw/odm/2003">
 <defs>
  <style type="text/css">
   <![CDATA[
    .fil0 {fill:#155263}
    .fil1 {fill:#FEC93C;fill-rule:nonzero}
   ]]>
  </style>
 </defs>
 <g id="Layer_x0020_1">
  <metadata id="CorelCorpID_0Corel-Layer"/>
  <g id="_1977245329440">
   <path class="fil0" d="M9.09 9.09c8.13,-8.13 19.66,-10.81 30.02,-8.03 2.41,0.65 4.17,2.4 4.81,4.82 0.65,2.41 0,4.81 -1.76,6.58l-5.68 5.68 -4.82 4.81 -4.81 -4.81 -0.19 -0.19 -1.87 11.53 -1.52 9.33 9.33 -1.52 11.53 -1.87 -0.19 -0.19 -0.01 -0.01 -0 0 -4.81 -4.81 4.81 -4.81 5.68 -5.68c1.77,-1.77 4.16,-2.41 6.58,-1.76 2.41,0.65 4.17,2.4 4.82,4.81 2.78,10.37 0.11,21.89 -8.03,30.02 -12.12,12.12 -31.78,12.12 -43.9,0 -12.12,-12.12 -12.12,-31.78 0,-43.9z"/>
   <path class="fil1" d="M50.29 26c-0.49,-1.86 0.63,-3.76 2.49,-4.25 1.86,-0.49 3.76,0.63 4.25,2.49 1.19,4.55 1.17,9.34 -0.06,13.86 -1.19,4.38 -3.5,8.51 -6.93,11.94 -5.25,5.25 -12.13,7.87 -19.01,7.87 -6.88,0 -13.76,-2.62 -19.01,-7.87 -5.25,-5.25 -7.87,-12.13 -7.87,-19.01 0,-6.88 2.62,-13.76 7.87,-19.01 3.43,-3.43 7.57,-5.74 11.94,-6.93 4.52,-1.23 9.31,-1.25 13.86,-0.06 1.86,0.49 2.98,2.39 2.49,4.25 -0.49,1.86 -2.39,2.98 -4.25,2.49 -3.35,-0.87 -6.9,-0.85 -10.27,0.06 -3.23,0.88 -6.29,2.59 -8.83,5.13 -3.88,3.88 -5.82,8.97 -5.82,14.06 0,5.09 1.94,10.18 5.82,14.06 3.88,3.88 8.97,5.83 14.06,5.83 5.09,0 10.18,-1.94 14.06,-5.82 2.54,-2.54 4.26,-5.6 5.13,-8.83 0.91,-3.37 0.93,-6.91 0.06,-10.27z"/>
  </g>
 </g>
</svg>
